{
    "asset" : {
        "generator" : "Khronos glTF Blender I/O v1.6.16",
        "version" : "2.0"
    },
    "scene" : 0,
    "scenes" : [
        {
            "name" : "Scene",
            "nodes" : [
                0,
                1,
                2,
                3
            ]
        }
    ],
    "nodes" : [
        {
            "name" : "Light",
            "rotation" : [
                0.16907575726509094,
                0.7558803558349609,
                -0.27217137813568115,
                0.570947527885437
            ],
            "translation" : [
                4.076245307922363,
                5.903861999511719,
                -1.0054539442062378
            ]
        },
        {
            "name" : "Camera",
            "rotation" : [
                0.483536034822464,
                0.33687159419059753,
                -0.20870360732078552,
                0.7804827094078064
            ],
            "translation" : [
                7.358891487121582,
                4.958309173583984,
                6.925790786743164
            ]
        },
        {
            "name" : "Camera~1",
            "rotation" : [
                0,
                -0.7071067094802856,
                0.7071068286895752,
                5.338507236274381e-08
            ],
            "translation" : [
                -2.4158507585525513e-06,
                0,
                0.800900399684906
            ]
        },
        {
            "mesh" : 0,
            "name" : "Body_1",
            "rotation" : [
                0.7071068286895752,
                0,
                0,
                0.7071068286895752
            ],
            "scale" : [
                9.02612018585205,
                9.02612018585205,
                9.02612018585205
            ],
            "translation" : [
                0,
                1.4375786781311035,
                0.010509481653571129
            ]
        }
    ],
    "materials" : [
        {
            "doubleSided" : true,
            "name" : "Mtl",
            "pbrMetallicRoughness" : {
                "roughnessFactor" : 0.5527864098548889
            }
        }
    ],
    "meshes" : [
        {
            "name" : "Body_1",
            "primitives" : [
                {
                    "attributes" : {
                        "POSITION" : 0,
                        "NORMAL" : 1,
                        "TEXCOORD_0" : 2
                    },
                    "indices" : 3,
                    "material" : 0
                }
            ]
        }
    ],
    "accessors" : [
        {
            "bufferView" : 0,
            "componentType" : 5126,
            "count" : 5615,
            "max" : [
                0.03789340704679489,
                0.014064337126910686,
                0.15552838146686554
            ],
            "min" : [
                -0.037898238748311996,
                -0.014064337126910686,
                -0.028863627463579178
            ],
            "type" : "VEC3"
        },
        {
            "bufferView" : 1,
            "componentType" : 5126,
            "count" : 5615,
            "type" : "VEC3"
        },
        {
            "bufferView" : 2,
            "componentType" : 5126,
            "count" : 5615,
            "type" : "VEC2"
        },
        {
            "bufferView" : 3,
            "componentType" : 5123,
            "count" : 18342,
            "type" : "SCALAR"
        }
    ],
    "bufferViews" : [
        {
            "buffer" : 0,
            "byteLength" : 67380,
            "byteOffset" : 0
        },
        {
            "buffer" : 0,
            "byteLength" : 67380,
            "byteOffset" : 67380
        },
        {
            "buffer" : 0,
            "byteLength" : 44920,
            "byteOffset" : 134760
        },
        {
            "buffer" : 0,
            "byteLength" : 36684,
            "byteOffset" : 179680
        }
    ],
    "buffers" : [
        {
            "byteLength" : 216364,
            "uri" : "human.bin"
        }
    ]
}
